<svg xmlns="http://www.w3.org/2000/svg" viewBox="0 0 64 64">
  <rect width="64" height="64" rx="14" fill="#16203A"/>
  <path d="M 16 8 H 52 Q 56 8 56 12 V 18 Q 56 21 53 21 H 32 Q 27 21 27 26 V 38 Q 27 43 32 43 H 53 Q 56 43 56 46 V 52 Q 56 56 52 56 H 16 Q 10 56 10 50 V 14 Q 10 8 16 8 Z" fill="#EDF0F6"/>
  <path d="M 16 8 Q 10 8 10 14 V 50 Q 10 56 16 56 H 23 V 8 Z" fill="#5457C5"/>
  <line x1="16.5" y1="15" x2="16.5" y2="49" stroke="#3B3E96" stroke-width="1.8" stroke-linecap="round"/>
  <line x1="31" y1="14.5" x2="49" y2="14.5" stroke="#868E9E" stroke-width="2.4" stroke-linecap="round"/>
  <line x1="31" y1="49.5" x2="49" y2="49.5" stroke="#868E9E" stroke-width="2.4" stroke-linecap="round"/>
  <rect x="32" y="28" width="16" height="8" rx="4" fill="#5457C5"/>
</svg>
