<svg xmlns="http://www.w3.org/2000/svg" viewBox="0 0 64 64">
  <rect width="64" height="64" rx="14" fill="#16203A"/>
  <path d="M 16 8 H 52 Q 56 8 56 12 V 18 Q 56 22 52 22 H 33 Q 28 22 28 27 V 37 Q 28 42 33 42 H 52 Q 56 42 56 46 V 52 Q 56 56 52 56 H 16 Q 10 56 10 50 V 14 Q 10 8 16 8 Z" fill="#EDF0F6"/>
  <path d="M 16 8 Q 10 8 10 14 V 50 Q 10 56 16 56 H 17 V 8 Z" fill="#5457C5"/>
  <circle cx="13.5" cy="15" r="2.2" fill="#EDF0F6"/><circle cx="13.5" cy="15" r="1" fill="#16203A"/>
  <circle cx="13.5" cy="32" r="2.2" fill="#EDF0F6"/><circle cx="13.5" cy="32" r="1" fill="#16203A"/>
  <circle cx="13.5" cy="49" r="2.2" fill="#EDF0F6"/><circle cx="13.5" cy="49" r="1" fill="#16203A"/>
  <line x1="30" y1="15" x2="50" y2="15" stroke="#16203A" stroke-width="3" stroke-linecap="round" opacity="0.8"/>
  <line x1="30" y1="49" x2="44" y2="49" stroke="#16203A" stroke-width="3" stroke-linecap="round" opacity="0.45"/>
  <rect x="33" y="28.5" width="15" height="7" rx="3.5" fill="#5457C5"/>
</svg>
